<svg class="main-svg" xmlns="http://www.w3.org/2000/svg" xmlns:xlink="http://www.w3.org/1999/xlink" width="1400" height="700" style="" viewBox="0 0 1400 700"><rect x="0" y="0" width="1400" height="700" style="fill: rgb(6, 6, 6); fill-opacity: 1;"/><defs id="defs-53746d"><g class="clips"><clipPath id="clip53746dxyplot" class="plotclip"><rect width="533.7" height="520"/></clipPath><clipPath id="clip53746dx2y2plot" class="plotclip"><rect width="533.6999999999999" height="520"/></clipPath><clipPath class="axesclip" id="clip53746dx"><rect x="80" y="0" width="533.7" height="700"/></clipPath><clipPath class="axesclip" id="clip53746dy"><rect x="0" y="100" width="1400" height="520"/></clipPath><clipPath class="axesclip" id="clip53746dxy"><rect x="80" y="100" width="533.7" height="520"/></clipPath><clipPath class="axesclip" id="clip53746dy2"><rect x="0" y="100" width="1400" height="520"/></clipPath><clipPath class="axesclip" id="clip53746dxy2"><rect x="80" y="100" width="533.7" height="520"/></clipPath><clipPath class="axesclip" id="clip53746dx2"><rect x="732.3000000000001" y="0" width="533.6999999999999" height="700"/></clipPath><clipPath class="axesclip" id="clip53746dx2y"><rect x="732.3000000000001" y="100" width="533.6999999999999" height="520"/></clipPath><clipPath class="axesclip" id="clip53746dx2y2"><rect x="732.3000000000001" y="100" width="533.6999999999999" height="520"/></clipPath></g><g class="gradients"/><g class="patterns"/></defs><g class="bglayer"/><g class="layer-below"><g class="imagelayer"/><g class="shapelayer"/></g><g class="cartesianlayer"><g class="subplot xy"><g class="layer-subplot"><g class="shapelayer"/><g class="imagelayer"/></g><g class="minor-gridlayer"><g class="x"/><g class="y"/></g><g class="gridlayer"><g class="x"><path class="xgrid crisp" transform="translate(231.47,0)" d="M0,100v520" style="stroke: rgb(255, 255, 255); stroke-opacity: 1; stroke-width: 1px;"/><path class="xgrid crisp" transform="translate(346.28,0)" d="M0,100v520" style="stroke: rgb(255, 255, 255); stroke-opacity: 1; stroke-width: 1px;"/><path class="xgrid crisp" transform="translate(461.09,0)" d="M0,100v520" style="stroke: rgb(255, 255, 255); stroke-opacity: 1; stroke-width: 1px;"/><path class="xgrid crisp" transform="translate(575.9,0)" d="M0,100v520" style="stroke: rgb(255, 255, 255); stroke-opacity: 1; stroke-width: 1px;"/></g><g class="y"/></g><g class="zerolinelayer"><path class="xzl zl crisp" transform="translate(116.66,0)" d="M0,100v520" style="stroke: rgb(255, 255, 255); stroke-opacity: 1; stroke-width: 2px;"/></g><path class="xlines-below"/><path class="ylines-below"/><g class="overlines-below"/><g class="xaxislayer-below"/><g class="yaxislayer-below"/><g class="overaxes-below"/><g class="plot" transform="translate(80,100)" clip-path="url(#clip53746dxyplot)"><g class="violinlayer mlayer"><g class="trace violins" style="opacity: 1;"><path class="violin" d="M72.96,494L72.96,491.46Q75.88,489.88 77.24,488.74C78.76,487.47 80.18,485.86 81.52,484.05C83.06,481.97 84.45,479.48 85.79,476.82C87.32,473.79 88.71,470.33 90.07,466.76C91.57,462.83 92.96,458.52 94.35,454.19C95.82,449.63 97.21,444.77 98.63,440.04C100.06,435.29 101.44,430.39 102.9,425.74C104.3,421.29 105.68,416.82 107.18,412.72C108.55,408.97 109.93,405.31 111.46,402.09C112.81,399.26 114.19,396.56 115.74,394.33C117.07,392.41 118.48,390.65 120.01,389.34C121.35,388.2 122.81,387.27 124.29,386.72C125.67,386.2 127.15,385.97 128.57,386C130,386.03 131.46,386.37 132.85,386.88C134.32,387.42 135.74,388.26 137.12,389.21C138.6,390.23 140.02,391.52 141.4,392.88C142.88,394.34 144.28,396.02 145.68,397.72C147.14,399.5 148.54,401.44 149.96,403.34C151.39,405.26 152.79,407.27 154.23,409.17C155.64,411.03 157.05,412.91 158.51,414.62C159.9,416.24 161.31,417.82 162.79,419.19C164.17,420.48 165.6,421.67 167.07,422.66C168.45,423.59 169.89,424.38 171.34,425.02C172.74,425.64 174.18,426.09 175.62,426.47C177.03,426.84 178.47,427.07 179.9,427.27C181.32,427.47 182.75,427.58 184.18,427.68C185.6,427.78 187.03,427.83 188.45,427.87C189.88,427.92 191.3,427.93 192.73,427.95C194.16,427.97 195.58,427.99 197.01,428.01C198.44,428.04 199.86,428.05 201.29,428.1C202.71,428.15 204.14,428.18 205.56,428.29C206.99,428.4 208.42,428.51 209.84,428.74C211.27,428.97 212.71,429.24 214.12,429.68C215.57,430.13 217.02,430.68 218.4,431.44C219.87,432.25 221.3,433.26 222.67,434.44C224.16,435.74 225.59,437.3 226.95,438.99C228.45,440.85 229.85,443.01 231.23,445.23C232.71,447.63 234.11,450.27 235.51,452.91C236.96,455.65 238.35,458.57 239.78,461.4C241.2,464.22 242.6,467.14 244.06,469.86C245.46,472.47 246.85,475.07 248.34,477.42C249.72,479.59 251.12,481.69 252.62,483.5C253.98,485.14 255.4,486.66 256.89,487.9C258.26,489.04 259.7,489.99 261.17,490.76Q262.56,491.48 265.45,492.43L265.45,494" style="vector-effect: none; stroke-width: 2px; stroke: rgb(173, 216, 230); stroke-opacity: 1; fill: rgb(173, 216, 230); fill-opacity: 0.5;"/></g><g class="trace violins" style="opacity: 1;"><path class="violin" d="M59.76,422L59.76,419.31Q63.53,417.63 65.3,416.38C67.23,415.02 69.09,413.3 70.83,411.33C72.8,409.1 74.62,406.4 76.37,403.52C78.34,400.27 80.14,396.55 81.91,392.71C83.84,388.52 85.64,383.9 87.44,379.29C89.33,374.47 91.13,369.35 92.98,364.39C94.82,359.44 96.62,354.33 98.51,349.55C100.31,345 102.11,340.45 104.05,336.36C105.81,332.64 107.59,329.03 109.58,325.96C111.32,323.28 113.12,320.73 115.12,318.83C116.85,317.18 118.71,315.75 120.65,314.95C122.42,314.22 124.36,313.89 126.19,314C128.05,314.11 129.95,314.78 131.73,315.64C133.65,316.57 135.49,318.02 137.26,319.55C139.19,321.21 141.01,323.26 142.8,325.34C144.7,327.54 146.51,330.02 148.33,332.44C150.2,334.92 152.01,337.56 153.87,340.06C155.7,342.52 157.51,345.04 159.4,347.33C161.2,349.52 163.03,351.66 164.94,353.53C166.73,355.28 168.57,356.92 170.48,358.28C172.27,359.56 174.12,360.65 176.01,361.53C177.82,362.38 179.68,363 181.55,363.52C183.38,364.03 185.23,364.35 187.08,364.63C188.92,364.91 190.77,365.04 192.62,365.18C194.46,365.31 196.31,365.38 198.15,365.44C200,365.5 201.84,365.52 203.69,365.55C205.53,365.58 207.38,365.59 209.22,365.61C211.07,365.63 212.91,365.63 214.76,365.65C216.61,365.67 218.45,365.68 220.3,365.71C222.14,365.74 223.99,365.77 225.83,365.84C227.68,365.91 229.53,365.98 231.37,366.15C233.22,366.32 235.07,366.5 236.9,366.84C238.76,367.18 240.62,367.59 242.44,368.2C244.31,368.83 246.17,369.61 247.97,370.6C249.87,371.64 251.72,372.91 253.51,374.35C255.42,375.88 257.25,377.69 259.04,379.59C260.94,381.6 262.76,383.87 264.58,386.14C266.46,388.49 268.28,391.04 270.12,393.49C271.97,395.94 273.77,398.49 275.65,400.86C277.47,403.15 279.29,405.44 281.19,407.49C282.98,409.42 284.81,411.27 286.72,412.84C288.51,414.31 290.36,415.62 292.26,416.7C294.06,417.72 295.92,418.55 297.79,419.21Q299.61,419.86 303.33,420.66L303.33,422" style="vector-effect: none; stroke-width: 2px; stroke: rgb(164, 173, 210); stroke-opacity: 1; fill: rgb(164, 173, 210); fill-opacity: 0.5;"/></g><g class="trace violins" style="opacity: 1;"><path class="violin" d="M74.3,350L74.3,347.42Q77.2,345.82 78.54,344.67C80.04,343.39 81.45,341.77 82.78,339.95C84.31,337.85 85.69,335.35 87.02,332.68C88.54,329.63 89.91,326.15 91.26,322.57C92.75,318.62 94.12,314.3 95.5,309.96C96.95,305.38 98.32,300.52 99.73,295.78C101.15,291.02 102.52,286.1 103.97,281.45C105.35,277 106.73,272.53 108.21,268.43C109.56,264.69 110.93,261.04 112.45,257.82C113.78,254.99 115.15,252.3 116.69,250.08C118.01,248.17 119.4,246.43 120.92,245.14C122.25,244.02 123.69,243.12 125.16,242.6C126.53,242.12 127.99,241.93 129.4,242C130.82,242.07 132.27,242.48 133.64,243.05C135.1,243.65 136.52,244.57 137.88,245.6C139.35,246.71 140.75,248.11 142.12,249.56C143.58,251.12 144.97,252.9 146.35,254.69C147.79,256.56 149.18,258.6 150.59,260.58C152.01,262.58 153.4,264.66 154.83,266.62C156.22,268.52 157.62,270.44 159.07,272.17C160.45,273.81 161.85,275.39 163.31,276.76C164.68,278.04 166.08,279.21 167.54,280.17C168.91,281.08 170.34,281.82 171.78,282.43C173.17,283.01 174.59,283.43 176.02,283.77C177.42,284.11 178.84,284.31 180.26,284.48C181.67,284.65 183.09,284.72 184.5,284.8C185.91,284.87 187.33,284.9 188.74,284.93C190.15,284.96 191.56,284.96 192.97,284.98C194.38,285 195.8,285.01 197.21,285.03C198.62,285.05 200.04,285.06 201.45,285.11C202.86,285.16 204.28,285.2 205.69,285.31C207.1,285.42 208.52,285.53 209.93,285.75C211.35,285.98 212.77,286.23 214.16,286.66C215.59,287.1 217.03,287.64 218.4,288.38C219.86,289.17 221.28,290.14 222.64,291.3C224.12,292.57 225.53,294.1 226.88,295.76C228.37,297.59 229.76,299.7 231.12,301.88C232.59,304.23 233.97,306.82 235.35,309.41C236.79,312.1 238.18,314.97 239.59,317.75C241,320.52 242.39,323.38 243.83,326.06C245.21,328.63 246.6,331.2 248.07,333.52C249.43,335.67 250.82,337.74 252.31,339.53C253.66,341.16 255.07,342.65 256.55,343.89C257.9,345.02 259.33,345.98 260.78,346.74Q262.15,347.46 265.02,348.41L265.02,350" style="vector-effect: none; stroke-width: 2px; stroke: rgb(155, 130, 189); stroke-opacity: 1; fill: rgb(155, 130, 189); fill-opacity: 0.5;"/></g><g class="trace violins" style="opacity: 1;"><path class="violin" d="M30.13,278L30.13,277.84Q33.12,277.74 34.62,277.67C36.12,277.59 37.62,277.51 39.12,277.39C40.62,277.27 42.12,277.13 43.61,276.94C45.11,276.75 46.62,276.52 48.11,276.24C49.61,275.96 51.11,275.64 52.6,275.24C54.11,274.83 55.62,274.37 57.1,273.81C58.61,273.24 60.11,272.59 61.59,271.84C63.11,271.06 64.62,270.18 66.09,269.19C67.62,268.15 69.12,266.99 70.58,265.72C72.12,264.38 73.62,262.9 75.08,261.32C76.62,259.65 78.11,257.84 79.57,255.94C81.11,253.94 82.6,251.8 84.07,249.6C85.6,247.3 87.09,244.87 88.56,242.4C90.08,239.84 91.58,237.19 93.06,234.51C94.58,231.77 96.06,228.95 97.55,226.14C99.06,223.3 100.55,220.4 102.05,217.54C103.55,214.69 105.03,211.8 106.54,208.99C108.03,206.22 109.52,203.45 111.04,200.78C112.52,198.18 114,195.61 115.53,193.16C117,190.81 118.49,188.52 120.03,186.38C121.49,184.35 122.97,182.39 124.52,180.62C125.97,178.96 127.47,177.39 129.02,176.04C130.47,174.78 131.96,173.63 133.51,172.73C134.96,171.88 136.47,171.18 138,170.72C139.47,170.28 141,170.03 142.5,170C144,169.97 145.51,170.17 146.99,170.52C148.51,170.88 150.02,171.48 151.49,172.18C153.02,172.91 154.51,173.84 155.98,174.85C157.51,175.9 159.01,177.12 160.48,178.39C162.01,179.71 163.49,181.14 164.97,182.62C166.49,184.14 167.99,185.75 169.47,187.39C170.99,189.07 172.47,190.81 173.96,192.57C175.47,194.36 176.97,196.19 178.46,198.03C179.96,199.88 181.45,201.76 182.95,203.64C184.45,205.53 185.95,207.43 187.45,209.32C188.95,211.2 190.44,213.08 191.94,214.94C193.43,216.79 194.93,218.63 196.44,220.44C197.93,222.23 199.42,224 200.93,225.73C202.42,227.44 203.92,229.12 205.43,230.76C206.92,232.38 208.41,233.97 209.92,235.51C211.41,237.03 212.91,238.51 214.42,239.95C215.91,241.36 217.4,242.75 218.91,244.08C220.4,245.39 221.9,246.66 223.41,247.88C224.89,249.08 226.39,250.23 227.9,251.34C229.39,252.43 230.89,253.47 232.4,254.46C233.88,255.43 235.38,256.36 236.89,257.24C238.38,258.11 239.88,258.94 241.39,259.73C242.88,260.51 244.38,261.26 245.88,261.97C247.37,262.68 248.87,263.35 250.37,263.99C251.86,264.63 253.37,265.23 254.87,265.82C256.36,266.4 257.86,266.96 259.36,267.49C260.85,268.02 262.36,268.52 263.86,268.98C265.35,269.44 266.85,269.88 268.35,270.27C269.84,270.66 271.35,271.02 272.85,271.34C274.34,271.66 275.84,271.94 277.34,272.19C278.84,272.44 280.34,272.66 281.84,272.86C283.34,273.06 284.83,273.23 286.33,273.4C287.83,273.57 289.33,273.71 290.83,273.87C292.33,274.03 293.82,274.19 295.32,274.35C296.82,274.52 298.32,274.68 299.82,274.86C301.32,275.04 302.81,275.23 304.31,275.41C305.81,275.6 307.31,275.79 308.81,275.97C310.31,276.15 311.8,276.34 313.3,276.5C314.8,276.66 316.3,276.82 317.8,276.95C319.3,277.08 320.79,277.2 322.29,277.29C323.79,277.38 325.29,277.44 326.79,277.49C328.29,277.54 329.78,277.56 331.28,277.57C332.78,277.58 334.28,277.56 335.78,277.53C337.28,277.51 338.77,277.46 340.27,277.42C341.77,277.38 343.27,277.32 344.77,277.28C346.27,277.24 347.76,277.19 349.26,277.17C350.76,277.14 352.26,277.13 353.76,277.13C355.26,277.13 356.75,277.16 358.25,277.19C359.75,277.22 361.24,277.26 362.74,277.31C364.24,277.36 365.74,277.42 367.24,277.48C368.74,277.54 370.23,277.6 371.73,277.65C373.23,277.7 374.73,277.75 376.23,277.79Q377.73,277.83 380.72,277.88L380.72,278" style="vector-effect: none; stroke-width: 2px; stroke: rgb(146, 86, 169); stroke-opacity: 1; fill: rgb(146, 86, 169); fill-opacity: 0.5;"/></g><g class="trace violins" style="opacity: 1;"><path class="violin" d="M35.87,206L35.87,205.77Q38.86,205.63 40.35,205.52C41.84,205.4 43.34,205.28 44.83,205.08C46.33,204.88 47.82,204.64 49.31,204.33C50.81,204.01 52.32,203.65 53.8,203.19C55.31,202.72 56.81,202.17 58.28,201.52C59.79,200.85 61.29,200.09 62.76,199.23C64.28,198.34 65.78,197.34 67.24,196.23C68.77,195.08 70.26,193.79 71.72,192.42C73.25,190.98 74.74,189.41 76.2,187.75C77.73,186.01 79.22,184.14 80.68,182.19C82.21,180.15 83.7,177.97 85.17,175.74C86.7,173.41 88.18,170.97 89.65,168.48C91.17,165.91 92.65,163.25 94.13,160.56C95.64,157.81 97.12,154.99 98.61,152.17C100.11,149.33 101.59,146.44 103.09,143.59C104.58,140.75 106.06,137.88 107.57,135.09C109.05,132.34 110.54,129.61 112.06,126.97C113.53,124.41 115.01,121.89 116.54,119.5C118,117.22 119.48,114.98 121.02,112.92C122.47,110.97 123.95,109.09 125.5,107.42C126.95,105.86 128.43,104.39 129.98,103.15C131.42,101.99 132.92,100.95 134.46,100.16C135.91,99.41 137.42,98.81 138.94,98.45C140.41,98.1 141.94,97.96 143.43,98C144.93,98.04 146.44,98.31 147.91,98.72C149.43,99.14 150.93,99.79 152.39,100.53C153.92,101.3 155.41,102.26 156.87,103.3C158.4,104.38 159.88,105.62 161.35,106.92C162.87,108.27 164.36,109.74 165.83,111.25C167.35,112.81 168.84,114.46 170.32,116.14C171.83,117.86 173.32,119.64 174.8,121.44C176.3,123.26 177.79,125.14 179.28,127.01C180.78,128.89 182.27,130.8 183.76,132.7C185.25,134.6 186.74,136.51 188.24,138.4C189.73,140.28 191.22,142.16 192.72,144.01C194.21,145.84 195.7,147.65 197.2,149.44C198.69,151.21 200.18,152.96 201.69,154.67C203.17,156.35 204.66,158.01 206.17,159.63C207.65,161.22 209.14,162.79 210.65,164.31C212.13,165.8 213.62,167.26 215.13,168.67C216.61,170.05 218.1,171.4 219.61,172.69C221.09,173.96 222.58,175.19 224.09,176.37C225.57,177.53 227.06,178.65 228.57,179.72C230.05,180.77 231.55,181.77 233.06,182.74C234.54,183.69 236.04,184.6 237.54,185.48C239.02,186.34 240.52,187.17 242.02,187.96C243.51,188.74 245,189.49 246.5,190.21C247.99,190.92 249.48,191.6 250.98,192.24C252.47,192.88 253.96,193.48 255.46,194.05C256.95,194.61 258.45,195.13 259.95,195.62C261.44,196.11 262.93,196.56 264.43,196.98C265.92,197.4 267.41,197.77 268.91,198.13C270.4,198.49 271.89,198.81 273.39,199.12C274.88,199.43 276.38,199.73 277.87,200.01C279.36,200.29 280.86,200.55 282.35,200.8C283.84,201.05 285.33,201.29 286.83,201.52C288.32,201.75 289.82,201.96 291.32,202.16C292.81,202.36 294.31,202.54 295.8,202.72C297.29,202.9 298.79,203.06 300.28,203.22C301.77,203.38 303.27,203.53 304.76,203.69C306.25,203.85 307.75,204 309.24,204.16C310.73,204.31 312.23,204.47 313.72,204.62C315.21,204.77 316.71,204.91 318.2,205.04C319.7,205.17 321.19,205.28 322.69,205.38C324.18,205.47 325.68,205.55 327.17,205.61C328.66,205.67 330.16,205.72 331.65,205.75C333.14,205.78 334.64,205.78 336.13,205.78C337.62,205.78 339.12,205.76 340.61,205.73C342.1,205.7 343.6,205.66 345.09,205.61C346.59,205.56 348.08,205.5 349.58,205.45C351.07,205.4 352.57,205.34 354.06,205.29C355.55,205.24 357.05,205.19 358.54,205.17C360.03,205.15 361.53,205.14 363.02,205.14C364.51,205.14 366.01,205.16 367.5,205.19C368.99,205.22 370.49,205.26 371.98,205.31C373.47,205.36 374.97,205.42 376.46,205.48C377.96,205.54 379.45,205.6 380.95,205.65C382.44,205.7 383.94,205.75 385.43,205.79Q386.92,205.83 389.91,205.88L389.91,206" style="vector-effect: none; stroke-width: 2px; stroke: rgb(137, 43, 148); stroke-opacity: 1; fill: rgb(137, 43, 148); fill-opacity: 0.5;"/></g><g class="trace violins" style="opacity: 1;"><path class="violin" d="M26.69,134L26.69,133.87Q29.71,133.8 31.22,133.74C32.73,133.68 34.24,133.61 35.75,133.52C37.26,133.43 38.77,133.33 40.28,133.19C41.79,133.05 43.3,132.89 44.81,132.69C46.32,132.49 47.83,132.26 49.34,131.97C50.86,131.68 52.37,131.35 53.87,130.93C55.39,130.5 56.91,130.02 58.4,129.43C59.93,128.82 61.45,128.14 62.94,127.32C64.48,126.47 65.99,125.51 67.47,124.42C69.02,123.28 70.53,121.99 72,120.6C73.55,119.13 75.06,117.5 76.53,115.78C78.08,113.97 79.59,112.01 81.06,109.97C82.61,107.83 84.11,105.56 85.59,103.23C87.13,100.81 88.63,98.27 90.12,95.7C91.65,93.06 93.16,90.33 94.66,87.59C96.18,84.8 97.68,81.95 99.19,79.11C100.7,76.26 102.2,73.36 103.72,70.51C105.22,67.68 106.73,64.83 108.25,62.06C109.75,59.34 111.24,56.63 112.78,54.02C114.27,51.5 115.76,49.01 117.31,46.65C118.79,44.4 120.28,42.19 121.84,40.16C123.31,38.24 124.81,36.39 126.38,34.75C127.84,33.22 129.34,31.77 130.91,30.57C132.37,29.45 133.88,28.44 135.44,27.7C136.91,27 138.44,26.46 139.97,26.18C141.46,25.91 143,25.86 144.5,26C146.02,26.15 147.55,26.54 149.03,27.07C150.57,27.62 152.08,28.4 153.56,29.27C155.11,30.18 156.62,31.29 158.1,32.45C159.64,33.66 161.14,35.03 162.63,36.43C164.17,37.88 165.67,39.44 167.16,41.03C168.69,42.66 170.19,44.37 171.69,46.09C173.21,47.84 174.72,49.65 176.22,51.47C177.74,53.31 179.24,55.18 180.75,57.05C182.26,58.93 183.77,60.83 185.28,62.72C186.79,64.61 188.3,66.52 189.82,68.4C191.33,70.28 192.83,72.15 194.35,74C195.85,75.83 197.36,77.66 198.88,79.44C200.38,81.2 201.89,82.94 203.41,84.63C204.91,86.3 206.42,87.93 207.94,89.52C209.44,91.08 210.95,92.6 212.47,94.08C213.97,95.53 215.48,96.94 217,98.31C218.5,99.66 220.01,100.96 221.54,102.23C223.04,103.47 224.55,104.68 226.07,105.84C227.57,106.98 229.08,108.08 230.6,109.14C232.1,110.18 233.61,111.19 235.13,112.14C236.63,113.08 238.14,113.97 239.66,114.82C241.16,115.66 242.67,116.46 244.19,117.21C245.69,117.95 247.2,118.65 248.72,119.32C250.23,119.98 251.74,120.61 253.26,121.2C254.76,121.79 256.28,122.34 257.79,122.86C259.3,123.38 260.81,123.87 262.32,124.33C263.83,124.79 265.34,125.21 266.85,125.62C268.36,126.02 269.87,126.4 271.38,126.76C272.89,127.11 274.4,127.44 275.91,127.75C277.42,128.05 278.93,128.33 280.44,128.59C281.95,128.85 283.47,129.08 284.98,129.3C286.49,129.52 288,129.72 289.51,129.91C291.02,130.1 292.53,130.27 294.04,130.45C295.55,130.63 297.06,130.8 298.57,130.97C300.08,131.15 301.59,131.32 303.1,131.5C304.61,131.68 306.12,131.86 307.63,132.03C309.14,132.2 310.65,132.38 312.16,132.54C313.67,132.7 315.19,132.85 316.7,132.99C318.21,133.12 319.72,133.24 321.23,133.35C322.74,133.45 324.25,133.54 325.76,133.62C327.27,133.69 328.78,133.75 330.29,133.8C331.8,133.85 333.31,133.87 334.82,133.9C336.33,133.93 337.84,133.95 339.35,133.96C340.86,133.97 342.37,133.98 343.88,133.98C345.39,133.99 346.91,133.99 348.42,133.99C349.93,133.99 351.44,134 352.95,134C354.46,134 355.97,134 357.48,134C358.99,134 360.5,134 362.01,134C363.52,134 365.03,134 366.54,134C368.05,134 369.56,134 371.07,134C372.58,134 374.09,134 375.6,134C377.11,134 378.63,134 380.14,134C381.65,134 383.16,134 384.67,134C386.18,134 387.69,134 389.2,134C390.71,134 392.22,134 393.73,134C395.24,134 396.75,134 398.26,134C399.77,134 401.28,134 402.79,134C404.3,134 405.81,134 407.32,134C408.83,134 410.35,134 411.86,134C413.37,134 414.88,134 416.39,134C417.9,134 419.41,134 420.92,134C422.43,134 423.94,134 425.45,134C426.96,134 428.47,134 429.98,134C431.49,134 433,134 434.51,134C436.02,134 437.53,133.99 439.04,133.99C440.55,133.99 442.07,133.99 443.58,133.98C445.09,133.97 446.6,133.96 448.11,133.94C449.62,133.92 451.13,133.91 452.64,133.88C454.15,133.85 455.66,133.82 457.17,133.78C458.68,133.74 460.19,133.69 461.7,133.64C463.21,133.59 464.72,133.53 466.23,133.48C467.74,133.42 469.25,133.36 470.76,133.31C472.27,133.26 473.79,133.21 475.3,133.18C476.81,133.15 478.32,133.14 479.83,133.14C481.34,133.14 482.85,133.15 484.36,133.18C485.87,133.21 487.38,133.26 488.89,133.31C490.4,133.36 491.91,133.42 493.42,133.48C494.93,133.54 496.44,133.6 497.95,133.65C499.46,133.7 500.97,133.74 502.48,133.78Q503.99,133.82 507.02,133.88L507.02,134" style="vector-effect: none; stroke-width: 2px; stroke: rgb(128, 0, 128); stroke-opacity: 1; fill: rgb(128, 0, 128); fill-opacity: 0.5;"/></g></g></g><g class="overplot"/><path class="xlines-above crisp" style="fill: none;" d="M0,0"/><path class="ylines-above crisp" style="fill: none;" d="M0,0"/><g class="overlines-above"/><g class="xaxislayer-above"><g class="xtick"><text text-anchor="middle" x="0" y="633" transform="translate(116.66,0)" style="font-family: 'Open Sans', verdana, arial, sans-serif; font-size: 12px; fill: rgb(255, 255, 255); fill-opacity: 1; white-space: pre; opacity: 1;">0</text></g><g class="xtick"><text text-anchor="middle" x="0" y="633" style="font-family: 'Open Sans', verdana, arial, sans-serif; font-size: 12px; fill: rgb(255, 255, 255); fill-opacity: 1; white-space: pre; opacity: 1;" transform="translate(231.47,0)">1</text></g><g class="xtick"><text text-anchor="middle" x="0" y="633" style="font-family: 'Open Sans', verdana, arial, sans-serif; font-size: 12px; fill: rgb(255, 255, 255); fill-opacity: 1; white-space: pre; opacity: 1;" transform="translate(346.28,0)">2</text></g><g class="xtick"><text text-anchor="middle" x="0" y="633" style="font-family: 'Open Sans', verdana, arial, sans-serif; font-size: 12px; fill: rgb(255, 255, 255); fill-opacity: 1; white-space: pre; opacity: 1;" transform="translate(461.09,0)">3</text></g><g class="xtick"><text text-anchor="middle" x="0" y="633" style="font-family: 'Open Sans', verdana, arial, sans-serif; font-size: 12px; fill: rgb(255, 255, 255); fill-opacity: 1; white-space: pre; opacity: 1;" transform="translate(575.9,0)">4</text></g></g><g class="yaxislayer-above"><g class="ytick"><text text-anchor="end" x="79" y="4.199999999999999" transform="translate(0,594)" style="font-family: 'Open Sans', verdana, arial, sans-serif; font-size: 12px; fill: rgb(255, 255, 255); fill-opacity: 1; white-space: pre; opacity: 1;">WindGas</text></g><g class="ytick"><text text-anchor="end" x="79" y="4.199999999999999" transform="translate(0,522)" style="font-family: 'Open Sans', verdana, arial, sans-serif; font-size: 12px; fill: rgb(255, 255, 255); fill-opacity: 1; white-space: pre; opacity: 1;">wind</text></g><g class="ytick"><text text-anchor="end" x="79" y="4.199999999999999" transform="translate(0,450)" style="font-family: 'Open Sans', verdana, arial, sans-serif; font-size: 12px; fill: rgb(255, 255, 255); fill-opacity: 1; white-space: pre; opacity: 1;">BioCCS</text></g><g class="ytick"><text text-anchor="end" x="79" y="4.199999999999999" transform="translate(0,378)" style="font-family: 'Open Sans', verdana, arial, sans-serif; font-size: 12px; fill: rgb(255, 255, 255); fill-opacity: 1; white-space: pre; opacity: 1;">gas</text></g><g class="ytick"><text text-anchor="end" x="79" y="4.199999999999999" transform="translate(0,306)" style="font-family: 'Open Sans', verdana, arial, sans-serif; font-size: 12px; fill: rgb(255, 255, 255); fill-opacity: 1; white-space: pre; opacity: 1;">oil</text></g><g class="ytick"><text text-anchor="end" x="79" y="4.199999999999999" transform="translate(0,234)" style="font-family: 'Open Sans', verdana, arial, sans-serif; font-size: 12px; fill: rgb(255, 255, 255); fill-opacity: 1; white-space: pre; opacity: 1;">coal</text></g></g><g class="overaxes-above"/></g><g class="subplot x2y2"><g class="layer-subplot"><g class="shapelayer"/><g class="imagelayer"/></g><g class="minor-gridlayer"><g class="x2"/><g class="y2"/></g><g class="gridlayer"><g class="x2"/><g class="y2"><path class="y2grid crisp" transform="translate(0,563.86)" d="M732.3000000000001,0h533.6999999999999" style="stroke: rgb(255, 255, 255); stroke-opacity: 1; stroke-width: 1px;"/><path class="y2grid crisp" transform="translate(0,507.73)" d="M732.3000000000001,0h533.6999999999999" style="stroke: rgb(255, 255, 255); stroke-opacity: 1; stroke-width: 1px;"/><path class="y2grid crisp" transform="translate(0,451.59)" d="M732.3000000000001,0h533.6999999999999" style="stroke: rgb(255, 255, 255); stroke-opacity: 1; stroke-width: 1px;"/><path class="y2grid crisp" transform="translate(0,395.45)" d="M732.3000000000001,0h533.6999999999999" style="stroke: rgb(255, 255, 255); stroke-opacity: 1; stroke-width: 1px;"/><path class="y2grid crisp" transform="translate(0,339.32)" d="M732.3000000000001,0h533.6999999999999" style="stroke: rgb(255, 255, 255); stroke-opacity: 1; stroke-width: 1px;"/><path class="y2grid crisp" transform="translate(0,283.18)" d="M732.3000000000001,0h533.6999999999999" style="stroke: rgb(255, 255, 255); stroke-opacity: 1; stroke-width: 1px;"/><path class="y2grid crisp" transform="translate(0,227.05)" d="M732.3000000000001,0h533.6999999999999" style="stroke: rgb(255, 255, 255); stroke-opacity: 1; stroke-width: 1px;"/><path class="y2grid crisp" transform="translate(0,170.91)" d="M732.3000000000001,0h533.6999999999999" style="stroke: rgb(255, 255, 255); stroke-opacity: 1; stroke-width: 1px;"/><path class="y2grid crisp" transform="translate(0,114.77)" d="M732.3000000000001,0h533.6999999999999" style="stroke: rgb(255, 255, 255); stroke-opacity: 1; stroke-width: 1px;"/></g></g><g class="zerolinelayer"><path class="y2zl zl crisp" transform="translate(0,620)" d="M732.3000000000001,0h533.6999999999999" style="stroke: rgb(255, 255, 255); stroke-opacity: 1; stroke-width: 2px;"/></g><path class="xlines-below"/><path class="ylines-below"/><g class="overlines-below"/><g class="xaxislayer-below"/><g class="yaxislayer-below"/><g class="overaxes-below"/><g class="plot" transform="translate(732.3000000000001,100)" clip-path="url(#clip53746dx2y2plot)"><g class="barlayer mlayer"><g class="trace bars" shape-rendering="crispEdges" style="opacity: 1;"><g class="points"><g class="point"><path d="M0,520V250.55H41.05V520Z" style="vector-effect: none; opacity: 1; stroke-width: 0px; fill: rgb(173, 216, 230); fill-opacity: 1;"/></g><g class="point"><path d="M41.05,520V26H82.11V520Z" style="vector-effect: none; opacity: 1; stroke-width: 0px; fill: rgb(173, 216, 230); fill-opacity: 1;"/></g><g class="point"><path d="M82.11,520V26H123.16V520Z" style="vector-effect: none; opacity: 1; stroke-width: 0px; fill: rgb(173, 216, 230); fill-opacity: 1;"/></g><g class="point"><path d="M123.16,520V26H164.22V520Z" style="vector-effect: none; opacity: 1; stroke-width: 0px; fill: rgb(173, 216, 230); fill-opacity: 1;"/></g><g class="point"><path d="M164.22,520V26H205.27V520Z" style="vector-effect: none; opacity: 1; stroke-width: 0px; fill: rgb(173, 216, 230); fill-opacity: 1;"/></g><g class="point"><path d="M205.27,520V228.09H246.32V520Z" style="vector-effect: none; opacity: 1; stroke-width: 0px; fill: rgb(173, 216, 230); fill-opacity: 1;"/></g><g class="point"><path d="M246.32,520V228.09H287.38V520Z" style="vector-effect: none; opacity: 1; stroke-width: 0px; fill: rgb(173, 216, 230); fill-opacity: 1;"/></g><g class="point"><path d="M287.38,520V228.09H328.43V520Z" style="vector-effect: none; opacity: 1; stroke-width: 0px; fill: rgb(173, 216, 230); fill-opacity: 1;"/></g><g class="point"><path d="M328.43,520V228.09H369.48V520Z" style="vector-effect: none; opacity: 1; stroke-width: 0px; fill: rgb(173, 216, 230); fill-opacity: 1;"/></g><g class="point"><path d="M369.48,520V228.09H410.54V520Z" style="vector-effect: none; opacity: 1; stroke-width: 0px; fill: rgb(173, 216, 230); fill-opacity: 1;"/></g><g class="point"><path d="M410.54,520V228.09H451.59V520Z" style="vector-effect: none; opacity: 1; stroke-width: 0px; fill: rgb(173, 216, 230); fill-opacity: 1;"/></g><g class="point"><path d="M451.59,520V228.09H492.65V520Z" style="vector-effect: none; opacity: 1; stroke-width: 0px; fill: rgb(173, 216, 230); fill-opacity: 1;"/></g><g class="point"><path d="M492.65,520V317.91H533.7V520Z" style="vector-effect: none; opacity: 1; stroke-width: 0px; fill: rgb(173, 216, 230); fill-opacity: 1;"/></g></g></g></g></g><g class="overplot"/><path class="xlines-above crisp" style="fill: none;" d="M0,0"/><path class="ylines-above crisp" style="fill: none;" d="M0,0"/><g class="overlines-above"/><g class="xaxislayer-above"><g class="x2tick"><text text-anchor="middle" x="0" y="633" transform="translate(773.35,0)" style="font-family: 'Open Sans', verdana, arial, sans-serif; font-size: 12px; fill: rgb(255, 255, 255); fill-opacity: 1; white-space: pre; opacity: 1;">0.6</text></g><g class="x2tick"><text text-anchor="middle" x="0" y="633" style="font-family: 'Open Sans', verdana, arial, sans-serif; font-size: 12px; fill: rgb(255, 255, 255); fill-opacity: 1; white-space: pre; opacity: 1;" transform="translate(855.46,0)">0.8</text></g><g class="x2tick"><text text-anchor="middle" x="0" y="633" style="font-family: 'Open Sans', verdana, arial, sans-serif; font-size: 12px; fill: rgb(255, 255, 255); fill-opacity: 1; white-space: pre; opacity: 1;" transform="translate(937.57,0)">1</text></g><g class="x2tick"><text text-anchor="middle" x="0" y="633" style="font-family: 'Open Sans', verdana, arial, sans-serif; font-size: 12px; fill: rgb(255, 255, 255); fill-opacity: 1; white-space: pre; opacity: 1;" transform="translate(1019.6800000000001,0)">1.2</text></g><g class="x2tick"><text text-anchor="middle" x="0" y="633" style="font-family: 'Open Sans', verdana, arial, sans-serif; font-size: 12px; fill: rgb(255, 255, 255); fill-opacity: 1; white-space: pre; opacity: 1;" transform="translate(1101.7800000000002,0)">1.4</text></g><g class="x2tick"><text text-anchor="middle" x="0" y="633" style="font-family: 'Open Sans', verdana, arial, sans-serif; font-size: 12px; fill: rgb(255, 255, 255); fill-opacity: 1; white-space: pre; opacity: 1;" transform="translate(1183.89,0)">1.6</text></g><g class="x2tick"><text text-anchor="middle" x="0" y="633" style="font-family: 'Open Sans', verdana, arial, sans-serif; font-size: 12px; fill: rgb(255, 255, 255); fill-opacity: 1; white-space: pre; opacity: 1;" transform="translate(1266,0)">1.8</text></g></g><g class="yaxislayer-above"><g class="y2tick"><text text-anchor="end" x="731.3000000000001" y="4.199999999999999" transform="translate(0,620)" style="font-family: 'Open Sans', verdana, arial, sans-serif; font-size: 12px; fill: rgb(255, 255, 255); fill-opacity: 1; white-space: pre; opacity: 1;">0</text></g><g class="y2tick"><text text-anchor="end" x="731.3000000000001" y="4.199999999999999" style="font-family: 'Open Sans', verdana, arial, sans-serif; font-size: 12px; fill: rgb(255, 255, 255); fill-opacity: 1; white-space: pre; opacity: 1;" transform="translate(0,563.86)">5</text></g><g class="y2tick"><text text-anchor="end" x="731.3000000000001" y="4.199999999999999" style="font-family: 'Open Sans', verdana, arial, sans-serif; font-size: 12px; fill: rgb(255, 255, 255); fill-opacity: 1; white-space: pre; opacity: 1;" transform="translate(0,507.73)">10</text></g><g class="y2tick"><text text-anchor="end" x="731.3000000000001" y="4.199999999999999" style="font-family: 'Open Sans', verdana, arial, sans-serif; font-size: 12px; fill: rgb(255, 255, 255); fill-opacity: 1; white-space: pre; opacity: 1;" transform="translate(0,451.59)">15</text></g><g class="y2tick"><text text-anchor="end" x="731.3000000000001" y="4.199999999999999" style="font-family: 'Open Sans', verdana, arial, sans-serif; font-size: 12px; fill: rgb(255, 255, 255); fill-opacity: 1; white-space: pre; opacity: 1;" transform="translate(0,395.45)">20</text></g><g class="y2tick"><text text-anchor="end" x="731.3000000000001" y="4.199999999999999" style="font-family: 'Open Sans', verdana, arial, sans-serif; font-size: 12px; fill: rgb(255, 255, 255); fill-opacity: 1; white-space: pre; opacity: 1;" transform="translate(0,339.32)">25</text></g><g class="y2tick"><text text-anchor="end" x="731.3000000000001" y="4.199999999999999" style="font-family: 'Open Sans', verdana, arial, sans-serif; font-size: 12px; fill: rgb(255, 255, 255); fill-opacity: 1; white-space: pre; opacity: 1;" transform="translate(0,283.18)">30</text></g><g class="y2tick"><text text-anchor="end" x="731.3000000000001" y="4.199999999999999" style="font-family: 'Open Sans', verdana, arial, sans-serif; font-size: 12px; fill: rgb(255, 255, 255); fill-opacity: 1; white-space: pre; opacity: 1;" transform="translate(0,227.05)">35</text></g><g class="y2tick"><text text-anchor="end" x="731.3000000000001" y="4.199999999999999" style="font-family: 'Open Sans', verdana, arial, sans-serif; font-size: 12px; fill: rgb(255, 255, 255); fill-opacity: 1; white-space: pre; opacity: 1;" transform="translate(0,170.91)">40</text></g><g class="y2tick"><text text-anchor="end" x="731.3000000000001" y="4.199999999999999" style="font-family: 'Open Sans', verdana, arial, sans-serif; font-size: 12px; fill: rgb(255, 255, 255); fill-opacity: 1; white-space: pre; opacity: 1;" transform="translate(0,114.77)">45</text></g></g><g class="overaxes-above"/></g></g><g class="polarlayer"/><g class="smithlayer"/><g class="ternarylayer"/><g class="geolayer"/><g class="funnelarealayer"/><g class="pielayer"/><g class="iciclelayer"/><g class="treemaplayer"/><g class="sunburstlayer"/><g class="glimages"/><defs id="topdefs-53746d"><g class="clips"/><clipPath id="legend53746d"><rect width="98" height="124" x="0" y="0"/></clipPath></defs><g class="layer-above"><g class="imagelayer"/><g class="shapelayer"/></g><g class="infolayer"><g class="legend" pointer-events="all" transform="translate(1289.72,100)"><rect class="bg" shape-rendering="crispEdges" style="stroke: rgb(68, 68, 68); stroke-opacity: 1; fill: rgb(6, 6, 6); fill-opacity: 1; stroke-width: 0px;" width="98" height="124" x="0" y="0"/><g class="scrollbox" transform="" clip-path="url(#legend53746d)"><g class="groups"><g class="traces" style="opacity: 1;" transform="translate(0,14.5)"><text class="legendtext" text-anchor="start" x="40" y="4.680000000000001" style="font-family: 'Open Sans', verdana, arial, sans-serif; font-size: 12px; fill: rgb(255, 255, 255); fill-opacity: 1; white-space: pre;">WindGas</text><g class="layers" style="opacity: 1;"><g class="legendfill"/><g class="legendlines"/><g class="legendsymbols"><g class="legendpoints"><path class="legendbox" d="M6,6H-6V-6H6Z" transform="translate(20,0)" style="stroke-width: 2px; fill: rgb(173, 216, 230); fill-opacity: 0.5; stroke: rgb(173, 216, 230); stroke-opacity: 1;"/></g></g></g><rect class="legendtoggle" x="0" y="-9.5" width="93" height="19" style="fill: rgb(0, 0, 0); fill-opacity: 0;"/></g><g class="traces" style="opacity: 1;" transform="translate(0,33.5)"><text class="legendtext" text-anchor="start" x="40" y="4.680000000000001" style="font-family: 'Open Sans', verdana, arial, sans-serif; font-size: 12px; fill: rgb(255, 255, 255); fill-opacity: 1; white-space: pre;">wind</text><g class="layers" style="opacity: 1;"><g class="legendfill"/><g class="legendlines"/><g class="legendsymbols"><g class="legendpoints"><path class="legendbox" d="M6,6H-6V-6H6Z" transform="translate(20,0)" style="stroke-width: 2px; fill: rgb(164, 173, 210); fill-opacity: 0.5; stroke: rgb(164, 173, 210); stroke-opacity: 1;"/></g></g></g><rect class="legendtoggle" x="0" y="-9.5" width="93" height="19" style="fill: rgb(0, 0, 0); fill-opacity: 0;"/></g><g class="traces" style="opacity: 1;" transform="translate(0,52.5)"><text class="legendtext" text-anchor="start" x="40" y="4.680000000000001" style="font-family: 'Open Sans', verdana, arial, sans-serif; font-size: 12px; fill: rgb(255, 255, 255); fill-opacity: 1; white-space: pre;">BioCCS</text><g class="layers" style="opacity: 1;"><g class="legendfill"/><g class="legendlines"/><g class="legendsymbols"><g class="legendpoints"><path class="legendbox" d="M6,6H-6V-6H6Z" transform="translate(20,0)" style="stroke-width: 2px; fill: rgb(155, 130, 189); fill-opacity: 0.5; stroke: rgb(155, 130, 189); stroke-opacity: 1;"/></g></g></g><rect class="legendtoggle" x="0" y="-9.5" width="93" height="19" style="fill: rgb(0, 0, 0); fill-opacity: 0;"/></g><g class="traces" style="opacity: 1;" transform="translate(0,71.5)"><text class="legendtext" text-anchor="start" x="40" y="4.680000000000001" style="font-family: 'Open Sans', verdana, arial, sans-serif; font-size: 12px; fill: rgb(255, 255, 255); fill-opacity: 1; white-space: pre;">gas</text><g class="layers" style="opacity: 1;"><g class="legendfill"/><g class="legendlines"/><g class="legendsymbols"><g class="legendpoints"><path class="legendbox" d="M6,6H-6V-6H6Z" transform="translate(20,0)" style="stroke-width: 2px; fill: rgb(146, 86, 169); fill-opacity: 0.5; stroke: rgb(146, 86, 169); stroke-opacity: 1;"/></g></g></g><rect class="legendtoggle" x="0" y="-9.5" width="93" height="19" style="fill: rgb(0, 0, 0); fill-opacity: 0;"/></g><g class="traces" style="opacity: 1;" transform="translate(0,90.5)"><text class="legendtext" text-anchor="start" x="40" y="4.680000000000001" style="font-family: 'Open Sans', verdana, arial, sans-serif; font-size: 12px; fill: rgb(255, 255, 255); fill-opacity: 1; white-space: pre;">oil</text><g class="layers" style="opacity: 1;"><g class="legendfill"/><g class="legendlines"/><g class="legendsymbols"><g class="legendpoints"><path class="legendbox" d="M6,6H-6V-6H6Z" transform="translate(20,0)" style="stroke-width: 2px; fill: rgb(137, 43, 148); fill-opacity: 0.5; stroke: rgb(137, 43, 148); stroke-opacity: 1;"/></g></g></g><rect class="legendtoggle" x="0" y="-9.5" width="93" height="19" style="fill: rgb(0, 0, 0); fill-opacity: 0;"/></g><g class="traces" style="opacity: 1;" transform="translate(0,109.5)"><text class="legendtext" text-anchor="start" x="40" y="4.680000000000001" style="font-family: 'Open Sans', verdana, arial, sans-serif; font-size: 12px; fill: rgb(255, 255, 255); fill-opacity: 1; white-space: pre;">coal</text><g class="layers" style="opacity: 1;"><g class="legendfill"/><g class="legendlines"/><g class="legendsymbols"><g class="legendpoints"><path class="legendbox" d="M6,6H-6V-6H6Z" transform="translate(20,0)" style="stroke-width: 2px; fill: rgb(128, 0, 128); fill-opacity: 0.5; stroke: rgb(128, 0, 128); stroke-opacity: 1;"/></g></g></g><rect class="legendtoggle" x="0" y="-9.5" width="93" height="19" style="fill: rgb(0, 0, 0); fill-opacity: 0;"/></g></g></g><rect class="scrollbar" rx="20" ry="3" width="0" height="0" style="fill: rgb(128, 139, 164); fill-opacity: 1;" x="0" y="0"/></g><g class="g-gtitle"><text class="gtitle" x="70" y="50" text-anchor="start" dy="0em" style="font-family: 'Open Sans', verdana, arial, sans-serif; font-size: 17px; fill: rgb(255, 255, 255); opacity: 1; font-weight: normal; white-space: pre;">Inputs Visualization</text></g><g class="g-xtitle"><text class="xtitle" x="346.85" y="659.8" text-anchor="middle" style="font-family: 'Open Sans', verdana, arial, sans-serif; font-size: 14px; fill: rgb(255, 255, 255); opacity: 1; font-weight: normal; white-space: pre;">Input Comparison</text></g><g class="g-x2title"><text class="x2title" x="999.1500000000001" y="659.8" text-anchor="middle" style="font-family: 'Open Sans', verdana, arial, sans-serif; font-size: 14px; fill: rgb(255, 255, 255); opacity: 1; font-weight: normal; white-space: pre;">Input Focus - WindGas</text></g><g class="g-ytitle"/><g class="g-y2title"/></g></svg>